<mxfile host="app.diagrams.net" agent="Mozilla/5.0 (Windows NT 10.0; Win64; x64) AppleWebKit/537.36 (KHTML, like Gecko) Chrome/133.0.0.0 Safari/537.36" version="26.1.0">
  <diagram name="Page-1" id="YS7X-ykHNvKBMltV8CAt">
    <mxGraphModel dx="1114" dy="661" grid="1" gridSize="10" guides="1" tooltips="1" connect="1" arrows="1" fold="1" page="1" pageScale="1" pageWidth="850" pageHeight="1100" math="0" shadow="0">
      <root>
        <mxCell id="0" />
        <mxCell id="1" parent="0" />
        <mxCell id="2lUdCyveNfaIL7XjsnUL-18" value="" style="edgeStyle=orthogonalEdgeStyle;rounded=0;orthogonalLoop=1;jettySize=auto;html=1;" edge="1" parent="1" source="2lUdCyveNfaIL7XjsnUL-1" target="2lUdCyveNfaIL7XjsnUL-17">
          <mxGeometry relative="1" as="geometry" />
        </mxCell>
        <mxCell id="2lUdCyveNfaIL7XjsnUL-1" value="user" style="ellipse;whiteSpace=wrap;html=1;aspect=fixed;" vertex="1" parent="1">
          <mxGeometry x="360" y="70" width="80" height="80" as="geometry" />
        </mxCell>
        <mxCell id="2lUdCyveNfaIL7XjsnUL-12" value="" style="edgeStyle=orthogonalEdgeStyle;rounded=0;orthogonalLoop=1;jettySize=auto;html=1;" edge="1" parent="1" source="2lUdCyveNfaIL7XjsnUL-2" target="2lUdCyveNfaIL7XjsnUL-11">
          <mxGeometry relative="1" as="geometry" />
        </mxCell>
        <mxCell id="2lUdCyveNfaIL7XjsnUL-2" value="admin" style="shape=cylinder3;whiteSpace=wrap;html=1;boundedLbl=1;backgroundOutline=1;size=15;" vertex="1" parent="1">
          <mxGeometry x="180" y="160" width="60" height="80" as="geometry" />
        </mxCell>
        <mxCell id="2lUdCyveNfaIL7XjsnUL-14" value="" style="edgeStyle=orthogonalEdgeStyle;rounded=0;orthogonalLoop=1;jettySize=auto;html=1;" edge="1" parent="1" source="2lUdCyveNfaIL7XjsnUL-3" target="2lUdCyveNfaIL7XjsnUL-13">
          <mxGeometry relative="1" as="geometry" />
        </mxCell>
        <mxCell id="2lUdCyveNfaIL7XjsnUL-3" value="user1" style="shape=cylinder3;whiteSpace=wrap;html=1;boundedLbl=1;backgroundOutline=1;size=15;" vertex="1" parent="1">
          <mxGeometry x="380" y="190" width="60" height="80" as="geometry" />
        </mxCell>
        <mxCell id="2lUdCyveNfaIL7XjsnUL-16" style="edgeStyle=orthogonalEdgeStyle;rounded=0;orthogonalLoop=1;jettySize=auto;html=1;entryX=1;entryY=0.25;entryDx=0;entryDy=0;" edge="1" parent="1" source="2lUdCyveNfaIL7XjsnUL-4" target="2lUdCyveNfaIL7XjsnUL-13">
          <mxGeometry relative="1" as="geometry" />
        </mxCell>
        <mxCell id="2lUdCyveNfaIL7XjsnUL-4" value="user2&lt;div&gt;&lt;br&gt;&lt;/div&gt;" style="shape=cylinder3;whiteSpace=wrap;html=1;boundedLbl=1;backgroundOutline=1;size=15;" vertex="1" parent="1">
          <mxGeometry x="585" y="190" width="60" height="80" as="geometry" />
        </mxCell>
        <mxCell id="2lUdCyveNfaIL7XjsnUL-5" value="Text" style="text;html=1;align=center;verticalAlign=middle;resizable=0;points=[];autosize=1;strokeColor=none;fillColor=none;" vertex="1" parent="1">
          <mxGeometry x="535" y="255" width="50" height="30" as="geometry" />
        </mxCell>
        <mxCell id="2lUdCyveNfaIL7XjsnUL-6" value="" style="endArrow=classic;html=1;rounded=0;exitX=1;exitY=0;exitDx=0;exitDy=27.5;exitPerimeter=0;" edge="1" parent="1">
          <mxGeometry width="50" height="50" relative="1" as="geometry">
            <mxPoint x="240" y="177.5" as="sourcePoint" />
            <mxPoint x="372" y="130" as="targetPoint" />
          </mxGeometry>
        </mxCell>
        <mxCell id="2lUdCyveNfaIL7XjsnUL-15" style="edgeStyle=orthogonalEdgeStyle;rounded=0;orthogonalLoop=1;jettySize=auto;html=1;" edge="1" parent="1" source="2lUdCyveNfaIL7XjsnUL-7" target="2lUdCyveNfaIL7XjsnUL-13">
          <mxGeometry relative="1" as="geometry" />
        </mxCell>
        <mxCell id="2lUdCyveNfaIL7XjsnUL-7" value="user3&lt;div&gt;&lt;br&gt;&lt;/div&gt;" style="shape=cylinder3;whiteSpace=wrap;html=1;boundedLbl=1;backgroundOutline=1;size=15;" vertex="1" parent="1">
          <mxGeometry x="480" y="190" width="60" height="80" as="geometry" />
        </mxCell>
        <mxCell id="2lUdCyveNfaIL7XjsnUL-8" value="" style="endArrow=classic;html=1;rounded=0;entryX=0.145;entryY=0;entryDx=0;entryDy=4.35;entryPerimeter=0;" edge="1" parent="1" source="2lUdCyveNfaIL7XjsnUL-1" target="2lUdCyveNfaIL7XjsnUL-3">
          <mxGeometry width="50" height="50" relative="1" as="geometry">
            <mxPoint x="270" y="80" as="sourcePoint" />
            <mxPoint x="382" y="140" as="targetPoint" />
          </mxGeometry>
        </mxCell>
        <mxCell id="2lUdCyveNfaIL7XjsnUL-9" value="" style="endArrow=classic;html=1;rounded=0;entryX=0.117;entryY=0.313;entryDx=0;entryDy=0;entryPerimeter=0;" edge="1" parent="1" source="2lUdCyveNfaIL7XjsnUL-1" target="2lUdCyveNfaIL7XjsnUL-7">
          <mxGeometry width="50" height="50" relative="1" as="geometry">
            <mxPoint x="260" y="197.5" as="sourcePoint" />
            <mxPoint x="392" y="150" as="targetPoint" />
          </mxGeometry>
        </mxCell>
        <mxCell id="2lUdCyveNfaIL7XjsnUL-10" value="" style="endArrow=classic;html=1;rounded=0;entryX=0;entryY=0;entryDx=0;entryDy=27.5;entryPerimeter=0;" edge="1" parent="1" source="2lUdCyveNfaIL7XjsnUL-1" target="2lUdCyveNfaIL7XjsnUL-4">
          <mxGeometry width="50" height="50" relative="1" as="geometry">
            <mxPoint x="270" y="207.5" as="sourcePoint" />
            <mxPoint x="402" y="160" as="targetPoint" />
          </mxGeometry>
        </mxCell>
        <mxCell id="2lUdCyveNfaIL7XjsnUL-20" value="" style="edgeStyle=orthogonalEdgeStyle;rounded=0;orthogonalLoop=1;jettySize=auto;html=1;" edge="1" parent="1" source="2lUdCyveNfaIL7XjsnUL-11" target="2lUdCyveNfaIL7XjsnUL-19">
          <mxGeometry relative="1" as="geometry" />
        </mxCell>
        <mxCell id="2lUdCyveNfaIL7XjsnUL-11" value="add/remove/update books&lt;div&gt;&lt;br&gt;&lt;/div&gt;" style="rounded=1;whiteSpace=wrap;html=1;" vertex="1" parent="1">
          <mxGeometry x="40" y="310" width="120" height="60" as="geometry" />
        </mxCell>
        <mxCell id="2lUdCyveNfaIL7XjsnUL-13" value="read/barrow/return/check-account" style="rounded=1;whiteSpace=wrap;html=1;" vertex="1" parent="1">
          <mxGeometry x="440" y="340" width="130" height="70" as="geometry" />
        </mxCell>
        <mxCell id="2lUdCyveNfaIL7XjsnUL-17" value="signup" style="shape=parallelogram;perimeter=parallelogramPerimeter;whiteSpace=wrap;html=1;fixedSize=1;" vertex="1" parent="1">
          <mxGeometry x="720" y="170" width="120" height="60" as="geometry" />
        </mxCell>
        <mxCell id="2lUdCyveNfaIL7XjsnUL-19" value="add/ remove user" style="whiteSpace=wrap;html=1;rounded=1;" vertex="1" parent="1">
          <mxGeometry x="40" y="450" width="120" height="60" as="geometry" />
        </mxCell>
      </root>
    </mxGraphModel>
  </diagram>
</mxfile>
